HIERARCHY
ROOT Hips
{
 OFFSET 0.000000 0.000000 0.000000
 CHANNELS 6 Xposition Yposition Zposition Yrotation Xrotation Zrotation
 JOINT Chest
 {
  OFFSET 0.000000 9.585900 0.002600
  CHANNELS 3 Yrotation Xrotation Zrotation
  JOINT Chest2
  {
   OFFSET 0.000000 9.601200 -0.005300
   CHANNELS 3 Yrotation Xrotation Zrotation
   JOINT Chest3
   {
    OFFSET 0.000000 9.561800 0.000000
    CHANNELS 3 Yrotation Xrotation Zrotation
    JOINT Chest4
    {
     OFFSET 0.000000 9.552100 0.000000
     CHANNELS 3 Yrotation Xrotation Zrotation
     JOINT Neck
     {
      OFFSET 0.000000 14.453000 0.000000
      CHANNELS 3 Yrotation Xrotation Zrotation
      JOINT Head
      {
       OFFSET 0.000000 8.936500 -0.011300
       CHANNELS 3 Yrotation Xrotation Zrotation
       End Site
       {
        OFFSET 0.000000 17.073600 -0.006000
       }
      }
     }
     JOINT RightCollar
     {
      OFFSET -2.921100 9.558500 0.000000
      CHANNELS 3 Yrotation Xrotation Zrotation
      JOINT RightShoulder
      {
       OFFSET -13.519700 0.000000 0.000000
       CHANNELS 3 Yrotation Xrotation Zrotation
       JOINT RightElbow
       {
        OFFSET 0.000000 -29.696600 0.000000
        CHANNELS 3 Yrotation Xrotation Zrotation
        JOINT RightWrist
        {
         OFFSET 0.000000 -24.004700 0.000000
         CHANNELS 3 Yrotation Xrotation Zrotation
         End Site
         {
          OFFSET 0.000000 -17.728500 0.000000
         }
        }
       }
      }
     }
     JOINT LeftCollar
     {
      OFFSET 2.921100 9.558500 0.000000
      CHANNELS 3 Yrotation Xrotation Zrotation
      JOINT LeftShoulder
      {
       OFFSET 13.519700 0.000000 0.000000
       CHANNELS 3 Yrotation Xrotation Zrotation
       JOINT LeftElbow
       {
        OFFSET 0.000000 -29.696600 0.000000
        CHANNELS 3 Yrotation Xrotation Zrotation
        JOINT LeftWrist
        {
         OFFSET 0.000000 -24.004700 0.000000
         CHANNELS 3 Yrotation Xrotation Zrotation
         End Site
         {
          OFFSET 0.000000 -17.728500 0.000000
         }
        }
       }
      }
     }
    }
   }
  }
 }
 JOINT RightHip
 {
  OFFSET -7.771700 -0.012900 -0.001300
  CHANNELS 3 Yrotation Xrotation Zrotation
  JOINT RightKnee
  {
   OFFSET 0.000000 -40.869800 0.001200
   CHANNELS 3 Yrotation Xrotation Zrotation
   JOINT RightAnkle
   {
    OFFSET 0.000000 -39.717900 0.002100
    CHANNELS 3 Yrotation Xrotation Zrotation
    JOINT RightToe
    {
     OFFSET 0.000000 -4.965400 11.033500
     CHANNELS 3 Yrotation Xrotation Zrotation
     End Site
     {
      OFFSET 0.000000 -1.423100 5.872300
     }
    }
   }
  }
 }
 JOINT LeftHip
 {
  OFFSET 7.771700 -0.012900 -0.001300
  CHANNELS 3 Yrotation Xrotation Zrotation
  JOINT LeftKnee
  {
   OFFSET 0.000000 -40.869800 0.001200
   CHANNELS 3 Yrotation Xrotation Zrotation
   JOINT LeftAnkle
   {
    OFFSET 0.000000 -39.717900 0.002100
    CHANNELS 3 Yrotation Xrotation Zrotation
    JOINT LeftToe
    {
     OFFSET 0.000000 -4.965400 11.033500
     CHANNELS 3 Yrotation Xrotation Zrotation
     End Site
     {
      OFFSET 0.000000 -1.423100 5.872300
     }
    }
   }
  }
 }
}
MOTION
Frames: 13
Frame Time: 0.008333
0.000000 85.388000 0.000000 0.000000 -5.767877 0.000000 0.000000 11.653817 0.000000 0.000000 -5.885947 0.000000 0.000000 -0.000000 0.000000 0.000000 -0.000000 0.000000 0.000000 12.528835 0.000000 0.000000 0.711642 0.000000 0.000000 -0.000000 0.000000 0.000000 0.000000 -90.000000 0.000000 -2.309062 0.000000 0.000000 2.309062 0.000000 0.000000 -0.000000 0.000000 0.000000 -0.000000 90.000000 0.000000 -2.309062 0.000000 0.000000 2.309062 0.000000 0.000000 8.520406 0.000000 0.000000 1.905762 0.000000 -0.000000 -4.658285 0.000000 0.000000 -0.000000 0.000000 0.000000 8.520406 0.000000 0.000000 1.905762 0.000000 -0.000000 -4.658285 0.000000 0.000000 -0.000000 0.000000
-78.524029 48.202972 20.849099 173.733521 -29.616001 -0.149894 -0.714056 14.342535 1.670679 -0.572229 8.209719 1.457130 -0.680728 10.265546 1.811896 -0.557410 8.217014 1.451237 -0.974118 16.296139 -3.167867 -0.699586 -5.509953 -5.539347 5.453281 5.398148 -5.790695 -1.962364 -18.377079 -8.897994 27.623474 -66.417985 -14.286943 9.048233 -5.029890 -40.766962 -2.152925 2.477577 -4.218824 6.890614 -23.988131 -1.767424 -68.559609 -49.740547 43.679926 -8.378248 6.464529 37.376744 29.759356 -49.851585 -35.567498 -113.401502 70.877717 -102.614702 6.062985 -5.405246 5.448574 0.209035 -1.076513 0.094066 -5.979329 -55.046157 14.293581 90.292403 82.714887 88.306345 -5.945837 -9.677203 -2.946166 0.375610 0.874913 0.171860
-78.523817 48.203834 20.849370 173.734884 -29.618407 -0.151286 -0.710240 14.346941 1.672445 -0.571538 8.210333 1.455548 -0.664786 10.271208 1.808936 -0.563220 8.213029 1.455103 -0.975839 16.293576 -3.163718 -0.698581 -5.515498 -5.531990 5.438317 5.392144 -5.782547 -1.963451 -18.379614 -8.903147 27.606184 -66.417270 -14.263719 9.053137 -5.031899 -40.767370 -2.167048 2.476107 -4.210049 6.890717 -23.993688 -1.764703 -68.552323 -49.744446 43.672761 -8.377277 6.455938 37.377710 29.754711 -49.852068 -35.563633 -113.408629 70.872991 -102.619732 6.053044 -5.402580 5.444197 0.220439 -1.080531 0.095661 -5.979746 -55.043327 14.293428 90.275340 82.716712 88.290681 -5.941816 -9.674625 -2.946019 0.378509 0.872947 0.170778
-78.524619 48.204932 20.849578 173.738671 -29.621393 -0.147482 -0.708448 14.353489 1.668381 -0.561125 8.213133 1.454242 -0.670112 10.268442 1.809655 -0.561158 8.213139 1.454263 -0.978865 16.291763 -3.160056 -0.700934 -5.521748 -5.523789 5.426725 5.386173 -5.774396 -1.968343 -18.380730 -8.906119 27.594220 -66.418318 -14.246230 9.045534 -5.029364 -40.771796 -2.179004 2.476089 -4.202044 6.889712 -23.992690 -1.766522 -68.546223 -49.749142 43.677898 -8.379706 6.449724 37.370201 29.748567 -49.846954 -35.563261 -113.402131 70.870543 -102.613367 6.038414 -5.407105 5.443634 0.237483 -1.076133 0.094655 -5.969050 -55.039650 14.276241 90.248457 82.720080 88.265391 -5.927752 -9.674993 -2.941778 0.372296 0.874125 0.166831
-78.525680 48.205306 20.851473 173.741244 -29.613514 -0.142340 -0.706944 14.348914 1.663328 -0.558820 8.212988 1.453543 -0.670467 10.268224 1.809147 -0.558341 8.212337 1.452788 -0.982810 16.290746 -3.157597 -0.704275 -5.523777 -5.516153 5.419331 5.382786 -5.768068 -1.976732 -18.381054 -8.905427 27.587465 -66.421669 -14.226421 9.040315 -5.025303 -40.779703 -2.184023 2.476045 -4.194467 6.884745 -23.995184 -1.769911 -68.550993 -49.752313 43.680617 -8.374665 6.450676 37.375369 29.756342 -49.850912 -35.576717 -113.389200 70.868322 -102.600382 6.030057 -5.401668 5.448070 0.233108 -1.076731 0.090853 -5.963075 -55.046281 14.267914 90.204862 82.720777 88.218308 -5.926357 -9.672938 -2.937175 0.372822 0.876150 0.165631
-78.525264 48.206424 20.852564 173.737796 -29.612967 -0.142336 -0.699812 14.349746 1.665413 -0.558917 8.212635 1.453936 -0.671694 10.268115 1.809119 -0.552740 8.209970 1.449872 -0.987555 16.290803 -3.156272 -0.711329 -5.522192 -5.511943 5.412653 5.383683 -5.763101 -1.982790 -18.381569 -8.904019 27.581452 -66.422753 -14.203280 9.038999 -5.029698 -40.789287 -2.190300 2.477524 -4.190431 6.883253 -23.997592 -1.771027 -68.552408 -49.760070 43.674052 -8.364096 6.456467 37.377280 29.756748 -49.855229 -35.569917 -113.382453 70.861956 -102.593255 6.017712 -5.394546 5.443410 0.228715 -1.080321 0.095807 -5.963492 -55.043258 14.274331 90.178422 82.723485 88.188121 -5.923420 -9.677563 -2.933736 0.370901 0.881294 0.164596
-78.524678 48.207555 20.853852 173.732188 -29.611688 -0.142465 -0.693591 14.347711 1.667338 -0.556410 8.213334 1.455145 -0.667550 10.266595 1.808192 -0.554191 8.208718 1.449439 -0.991245 16.292101 -3.154418 -0.720295 -5.523321 -5.508568 5.406596 5.386282 -5.759600 -1.983429 -18.382282 -8.903368 27.560767 -66.409065 -14.168900 9.039577 -5.044182 -40.801687 -2.191036 2.480190 -4.182868 6.882855 -23.999005 -1.776286 -68.546657 -49.761819 43.671839 -8.367130 6.455811 37.371784 29.759284 -49.856953 -35.565646 -113.376556 70.859273 -102.582824 6.015565 -5.394134 5.438113 0.243176 -1.080845 0.101374 -5.961782 -55.041804 14.279579 90.152412 82.727377 88.160411 -5.913815 -9.680027 -2.931452 0.362241 0.884708 0.163035
-78.524421 48.208783 20.854952 173.728087 -29.611608 -0.141532 -0.691000 14.346641 1.667565 -0.554572 8.212206 1.452418 -0.661154 10.260974 1.806021 -0.558207 8.215382 1.455010 -0.992531 16.291689 -3.155734 -0.729364 -5.522638 -5.508960 5.402557 5.383267 -5.756556 -1.984144 -18.375623 -8.909417 27.555002 -66.408201 -14.154534 9.034553 -5.047813 -40.797609 -2.186729 2.476666 -4.178410 6.881022 -23.995270 -1.777263 -68.541655 -49.763726 43.665290 -8.368819 6.447171 37.368410 29.764863 -49.854516 -35.565511 -113.372532 70.858342 -102.572578 6.014374 -5.394177 5.436867 0.243625 -1.080032 0.102017 -5.958899 -55.040575 14.281392 90.135492 82.729648 88.143287 -5.910227 -9.678105 -2.930468 0.358069 0.883621 0.162138
-78.525049 48.209990 20.855823 173.726247 -29.612168 -0.136676 -0.691855 14.345814 1.663428 -0.553235 8.210107 1.451749 -0.660623 10.261102 1.804344 -0.552549 8.213285 1.454139 -0.997227 16.292436 -3.156330 -0.743871 -5.528972 -5.514801 5.396862 5.387459 -5.750239 -1.984182 -18.366099 -8.918379 27.557287 -66.414017 -14.152346 9.030017 -5.051213 -40.801372 -2.180734 2.479284 -4.175867 6.871005 -23.991926 -1.770545 -68.545386 -49.769627 43.660538 -8.366473 6.448234 37.363383 29.770938 -49.851465 -35.570351 -113.370172 70.858287 -102.568202 6.012762 -5.391958 5.435914 0.242729 -1.081503 0.103162 -5.949520 -55.041687 14.269670 90.131306 82.729911 88.141157 -5.903093 -9.670329 -2.928070 0.352388 0.876933 0.158332
-78.526531 48.210924 20.856774 173.731783 -29.610838 -0.130725 -0.696378 14.343936 1.655916 -0.554440 8.208243 1.449957 -0.661965 10.262247 1.804678 -0.554089 8.200572 1.445811 -0.998026 16.299977 -3.152896 -0.742160 -5.533602 -5.520226 5.398935 5.400522 -5.739108 -1.981492 -18.363088 -8.920166 27.568386 -66.413980 -14.163351 9.022719 -5.053203 -40.807147 -2.175356 2.489517 -4.167731 6.871550 -23.986447 -1.765814 -68.550143 -49.770755 43.656847 -8.361718 6.444302 37.359381 29.776494 -49.847230 -35.583897 -113.369250 70.858889 -102.565818 6.011828 -5.390444 5.436635 0.243288 -1.082710 0.102513 -5.948561 -55.043786 14.256131 90.117483 82.726900 88.124703 -5.902116 -9.660015 -2.920518 0.348707 0.869607 0.150312
-78.525842 48.212288 20.856824 173.725635 -29.616253 -0.131275 -0.689229 14.345537 1.659667 -0.554566 8.201974 1.448049 -0.661387 10.266628 1.803688 -0.555408 8.193546 1.446664 -0.999617 16.288918 -3.163738 -0.739461 -5.527985 -5.521401 5.398347 5.414221 -5.734420 -1.974992 -18.361035 -8.921471 27.576213 -66.414815 -14.179617 9.024762 -5.062818 -40.798047 -2.171859 2.500152 -4.166737 6.871586 -23.984006 -1.762852 -68.558427 -49.767988 43.660290 -8.362367 6.439634 37.347635 29.775650 -49.843806 -35.574265 -113.366094 70.859187 -102.559959 6.015409 -5.384467 5.431266 0.256916 -1.088594 0.106590 -5.947853 -55.037662 14.261871 90.133030 82.729534 88.139262 -5.894780 -9.658583 -2.915839 0.342330 0.868036 0.148322
-78.525166 48.212568 20.858389 173.715076 -29.609954 -0.129910 -0.679649 14.328717 1.664655 -0.554575 8.210702 1.446635 -0.662600 10.258945 1.801422 -0.553149 8.181659 1.449028 -1.001254 16.300935 -3.167015 -0.736908 -5.547575 -5.534090 5.401820 5.438550 -5.731367 -1.976299 -18.361537 -8.921934 27.583666 -66.416523 -14.194618 9.023550 -5.067624 -40.787163 -2.167340 2.519539 -4.168080 6.865167 -23.982445 -1.759867 -68.557543 -49.769898 43.658946 -8.367956 6.436962 37.342517 29.783843 -49.849018 -35.576609 -113.355286 70.870361 -102.541763 6.011504 -5.377297 5.427109 0.247283 -1.089650 0.105289 -5.944491 -55.043003 14.269712 90.126450 82.728304 88.134281 -5.896968 -9.658278 -2.915348 0.347495 0.869450 0.149487
-78.525816 48.213501 20.858325 173.713430 -29.612281 -0.122444 -0.680705 14.320598 1.656465 -0.554278 8.209687 1.448993 -0.662410 10.253241 1.801499 -0.551561 8.170554 1.447394 -1.004074 16.317145 -3.169481 -0.735609 -5.553211 -5.539658 5.397862 5.468877 -5.725309 -1.970893 -18.362033 -8.924188 27.589279 -66.417532 -14.205780 9.022293 -5.069957 -40.782382 -2.160629 2.542966 -4.169103 6.853564 -23.977236 -1.756956 -68.555902 -49.772868 43.657509 -8.370638 6.436788 37.338892 29.792784 -49.840275 -35.586287 -113.357144 70.875696 -102.539859 6.011271 -5.378919 5.428281 0.249382 -1.086592 0.106709 -5.934455 -55.037941 14.253423 90.097130 82.723997 88.105056 -5.886078 -9.659703 -2.910726 0.340820 0.873028 0.143415
